<svg width="40" height="40" viewBox="0 0 40 40" fill="none" xmlns="http://www.w3.org/2000/svg">
<g clip-path="url(#clip0_1181_373181)">
<path d="M28.5194 0H11.4883C5.15377 0 0 5.15348 0 11.4842V28.5143C0 34.8485 5.15377 39.9985 11.4849 39.9985H28.5159C34.8505 39.9985 40.0008 34.845 40.0008 28.5143V11.4842C40.0042 5.15348 34.8505 0 28.5194 0Z" fill="url(#paint0_linear_1181_373181)"/>
<path fill-rule="evenodd" clip-rule="evenodd" d="M21.7305 40.0004H28.5017C34.8362 40.0004 39.9865 34.8467 39.9865 28.5158V27.8364L27.9732 36.8054C26.0348 38.2526 23.9225 39.3131 21.7305 40.0004Z" fill="#00964C"/>
<path fill-rule="evenodd" clip-rule="evenodd" d="M40.0008 21.2048L27.0011 3.79363C26.477 2.99442 25.8082 2.27248 25.0007 1.66994C23.4832 0.537582 21.7007 -0.00551457 19.9328 4.29223e-05C19.9238 1.43092e-05 19.9148 0 19.9057 0C18.1467 0 16.3746 0.543315 14.8648 1.66994C14.0571 2.27258 13.3881 2.99468 12.864 3.79405L0 21.0233V28.5143C0 33.1555 2.76694 37.1609 6.73655 38.9705C7.7762 38.407 8.71205 37.6166 9.46271 36.6113L19.9326 22.5885L30.4023 36.6113C31.1679 37.6366 32.1261 38.4383 33.1907 39.0038C37.2008 37.2099 40.0008 33.1821 40.0008 28.5143V21.2048Z" fill="url(#paint1_linear_1181_373181)"/>
<path fill-rule="evenodd" clip-rule="evenodd" d="M29.625 35.5704L30.4033 36.6127C31.167 37.6358 32.1221 38.4358 33.1833 39.0015C37.1884 37.2052 39.9841 33.1802 39.9841 28.5158V27.8364L29.625 35.5704Z" fill="#22AB67"/>
<path d="M35.0938 22.003H32.2301C31.9505 22.003 31.7238 21.7763 31.7238 21.4967V18.8757C31.7238 18.596 31.9505 18.3694 32.2301 18.3694H35.0938C35.3735 18.3694 35.6001 18.1427 35.6001 17.863C35.6001 17.6838 35.5053 17.5178 35.3504 17.4264L31.2998 15.0384C31.101 14.9212 30.8478 14.9533 30.6839 15.1165L27.7526 18.0478C27.6578 18.1427 27.5288 18.1964 27.3942 18.1964H25.1289L27.3328 19.7566C27.6292 19.9665 27.6292 20.4066 27.3328 20.6165L25.1289 22.1767H27.3949C27.5295 22.1767 27.6578 22.2304 27.7533 22.3252L30.6846 25.2566C30.8478 25.4198 31.101 25.4518 31.3005 25.3347L35.3511 22.9466C35.506 22.8553 35.6008 22.6893 35.6008 22.51C35.6008 22.2297 35.3735 22.003 35.0938 22.003Z" fill="white"/>
<path d="M26.4537 24.6082H18.6459C16.0878 24.6082 14.0136 22.5341 14.0136 19.9759C14.0136 17.4178 16.0878 15.3437 18.6459 15.3437H26.5046L27.5221 14.0932C27.8332 13.6664 27.7885 13.0952 27.4147 12.7221L25.6677 10.9639C25.351 10.5859 24.7136 10.521 24.2791 10.8419L22.9812 11.8636C22.3737 11.4521 21.6609 11.1634 20.9537 10.9304L20.7668 9.27965C20.7264 8.76565 20.2333 8.34511 19.773 8.32349L17.2462 8.34859C16.7287 8.33186 16.2984 8.71125 16.2238 9.23362L16.002 10.8021C15.216 11.0364 14.4355 11.3273 13.7765 11.7234L12.5448 10.6703C12.1187 10.3592 11.4903 10.4088 11.1737 10.7777L9.35826 12.5289C8.98025 12.8462 8.91539 13.483 9.2934 13.9133L10.191 15.1066C9.78857 15.8277 9.49914 16.5405 9.27178 17.3048L7.79253 17.4785C7.22063 17.5231 6.85309 17.9548 6.83635 18.473L6.80078 20.9467C6.84542 21.5179 7.22342 21.9468 7.68861 22.0256L9.19645 22.1951C9.3729 22.986 9.65955 23.7092 10.0557 24.3683L9.11346 25.5337C8.80171 25.9605 8.84634 26.531 9.22086 26.9041L10.9107 28.6679C11.288 29.0982 11.8648 29.1107 12.3558 28.7843L13.4354 27.8951C14.1608 28.3561 14.9356 28.6971 15.7 28.9245L15.8695 30.3479C15.9099 30.8605 16.3444 31.2874 16.8584 31.2469L19.3315 31.2825C19.9076 31.2943 20.3379 30.9163 20.4118 30.3926L20.5904 28.9998C21.4336 28.762 22.2105 28.4133 22.9261 28.0123L24.0915 28.9545C24.519 29.2662 25.0895 29.2216 25.4612 28.8471L27.278 27.0973C27.656 26.7792 27.6637 26.1474 27.3415 25.7136L26.4537 24.6082Z" fill="white"/>
<path d="M25.9511 19.8161L23.2507 17.9037L20.7441 16.1287C20.4414 15.9146 20.0237 16.1308 20.0237 16.5011V18.3717H15.9535C15.664 18.3717 15.4297 18.606 15.4297 18.8954V21.4802C15.4297 21.7696 15.664 22.0039 15.9535 22.0039H20.023V23.8745C20.023 24.2448 20.4414 24.4617 20.7434 24.2469L23.25 22.4719L25.9504 20.5595C26.2085 20.3796 26.2085 19.9981 25.9511 19.8161Z" fill="white"/>
</g>
<defs>
<linearGradient id="paint0_linear_1181_373181" x1="38.9607" y1="34.4791" x2="2.27338" y2="0.850798" gradientUnits="userSpaceOnUse">
<stop offset="0.193699" stop-color="#074E9F"/>
<stop offset="1" stop-color="#095FC3"/>
</linearGradient>
<linearGradient id="paint1_linear_1181_373181" x1="17.2003" y1="36.2537" x2="24.2347" y2="-10.2397" gradientUnits="userSpaceOnUse">
<stop stop-color="#074E9F"/>
<stop offset="1" stop-color="#0A6EE1"/>
</linearGradient>
<clipPath id="clip0_1181_373181">
<rect width="40.0008" height="40" fill="white"/>
</clipPath>
</defs>
</svg>
